<svg width="71" height="89" viewBox="0 0 71 89" fill="none" xmlns="http://www.w3.org/2000/svg">
<g clip-path="url(#clip0_523_218)">
<path d="M27.9375 14.25H22.8958C21.5036 14.25 20.375 15.3786 20.375 16.7708V21.8125C20.375 23.2047 21.5036 24.3333 22.8958 24.3333H27.9375C29.3295 24.3333 30.4583 23.2047 30.4583 21.8125V16.7708C30.4583 15.3786 29.3295 14.25 27.9375 14.25Z" fill="#9605F7"/>
<path d="M48.104 14.25H43.0623C41.6703 14.25 40.5415 15.3786 40.5415 16.7708V21.8125C40.5415 23.2047 41.6703 24.3333 43.0623 24.3333H48.104C49.496 24.3333 50.6248 23.2047 50.6248 21.8125V16.7708C50.6248 15.3786 49.496 14.25 48.104 14.25Z" fill="#9605F7"/>
<path d="M27.9375 31.8955H22.8958C21.5036 31.8955 20.375 33.0241 20.375 34.4163V39.458C20.375 40.85 21.5036 41.9788 22.8958 41.9788H27.9375C29.3295 41.9788 30.4583 40.85 30.4583 39.458V34.4163C30.4583 33.0241 29.3295 31.8955 27.9375 31.8955Z" fill="#9605F7"/>
<path d="M48.104 31.8955H43.0623C41.6703 31.8955 40.5415 33.0241 40.5415 34.4163V39.458C40.5415 40.85 41.6703 41.9788 43.0623 41.9788H48.104C49.496 41.9788 50.6248 40.85 50.6248 39.458V34.4163C50.6248 33.0241 49.496 31.8955 48.104 31.8955Z" fill="#9605F7"/>
<path d="M27.9375 49.542H22.8958C21.5036 49.542 20.375 50.6708 20.375 52.0628V57.1045C20.375 58.4965 21.5036 59.6253 22.8958 59.6253H27.9375C29.3295 59.6253 30.4583 58.4965 30.4583 57.1045V52.0628C30.4583 50.6708 29.3295 49.542 27.9375 49.542Z" fill="#9605F7"/>
<path d="M48.104 49.542H43.0623C41.6703 49.542 40.5415 50.6708 40.5415 52.0628V57.1045C40.5415 58.4965 41.6703 59.6253 43.0623 59.6253H48.104C49.496 59.6253 50.6248 58.4965 50.6248 57.1045V52.0628C50.6248 50.6708 49.496 49.542 48.104 49.542Z" fill="#9605F7"/>
<path d="M67.0106 81.0524H64.4897V4.16699C64.4766 3.16819 64.0743 2.214 63.368 1.50766C62.6616 0.801377 61.7072 0.3988 60.7085 0.385742H10.2918C9.29303 0.3988 8.33884 0.801377 7.6325 1.50766C6.92621 2.214 6.52364 3.16819 6.51058 4.16699V81.0524H3.98975C2.98691 81.0524 2.02511 81.4507 1.316 82.1601C0.606888 82.8689 0.208496 83.8309 0.208496 84.8337C0.208496 85.8364 0.606888 86.7984 1.316 87.5073C2.02511 88.2166 2.98691 88.6149 3.98975 88.6149H67.0106C68.0134 88.6149 68.9753 88.2166 69.6842 87.5073C70.3935 86.7984 70.7918 85.8364 70.7918 84.8337C70.7918 83.8309 70.3935 82.8689 69.6842 82.1601C68.9753 81.4507 68.0134 81.0524 67.0106 81.0524ZM56.9272 81.0524H30.4585V69.7087C30.4585 69.0401 30.1928 68.3988 29.7204 67.9259C29.2475 67.4535 28.6062 67.1878 27.9377 67.1878H22.896C22.2274 67.1878 21.5862 67.4535 21.1135 67.9259C20.6408 68.3988 20.3752 69.0401 20.3752 69.7087V81.0524H14.0731V7.94824H56.9272V81.0524Z" fill="#9605F7"/>
</g>
<defs>
<clipPath id="clip0_523_218">
<rect width="71" height="89" fill="white"/>
</clipPath>
</defs>
</svg>
